<svg xmlns="http://www.w3.org/2000/svg" width="346.395" height="71.768" viewBox="0 0 91.65 18.989">
  <path
    d="M28.313 8.876c0-.056.008-.098.022-.127.014-.027.058-.06.131-.097.13-.066.487-.098 1.073-.098.64 0 1.02.046 1.138.137.045.041.067.105.067.19l-.024 1.43a.3.3 0 01-.022.128c-.014.026-.058.058-.131.095-.13.066-.487.099-1.073.098-.64 0-1.016-.047-1.124-.14-.055-.04-.081-.102-.08-.188z"
    fill="#fff" />
  <path
    d="M83.488 15.37l-2.454 3.05c-.31.373-.574.56-.793.559-.219 0-.497-.167-.835-.5-.337-.333-.506-.617-.505-.85 0-.235.151-.533.453-.897l2.595-3.093"
    fill="teal" />
  <path
    d="M81.787 13.833L89.53 4.14c.31-.374.574-.56.793-.56.219.002.495.166.828.494.334.328.5.619.5.871-.001.253-.148.547-.44.883l-7.894 9.753"
    fill="teal" />
  <path
    d="M39.051 16.174l.232-.18c.293-.184.499-.276.619-.276.266.001.552.261.86.781.187.325.281.585.28.78a.704.704 0 01-.175.485c-.116.13-.251.245-.406.347l-.445.29c-.142.093-.432.212-.87.36-.438.146-.86.22-1.268.218a4.596 4.596 0 01-1.234-.177 5.023 5.023 0 01-1.285-.588 5.395 5.395 0 01-1.188-1.004c-.35-.395-.638-.9-.864-1.518a5.763 5.763 0 01-.334-2.01c.002-.722.115-1.377.34-1.965.225-.588.512-1.074.86-1.457a4.962 4.962 0 011.193-.963c.842-.498 1.688-.745 2.537-.743.403.001.812.07 1.228.205.416.136.73.273.944.413l.309.196c.154.102.274.186.36.25.222.196.333.416.332.662 0 .245-.092.502-.272.77-.337.5-.638.75-.904.749-.154-.001-.372-.103-.655-.308-.36-.316-.84-.475-1.44-.477-.557-.002-1.106.205-1.648.62-.258.204-.473.49-.646.86-.173.37-.26.79-.261 1.258-.002.468.083.888.253 1.259.17.37.389.663.654.877.522.41 1.066.615 1.632.616.266.001.517-.035.753-.109.236-.073.406-.146.51-.22M58.882 8.988a.631.631 0 01.367-.333c.163-.056.367-.084.611-.083.245 0 .442.025.592.073.15.048.261.105.334.171a.595.595 0 01.16.3c.051.151.076.393.075.724L61 17.731c-.001.228-.008.393-.021.497a1.226 1.226 0 01-.123.37c-.121.256-.457.383-1.005.38-.335 0-.566-.03-.695-.087a.763.763 0 01-.32-.27 661.35 661.35 0 00-3.793-5.585l-.014 4.677c0 .228-.007.394-.02.498a1.228 1.228 0 01-.124.37c-.12.255-.456.382-1.005.38-.532-.002-.857-.13-.976-.387a1.21 1.21 0 01-.121-.384 4.796 4.796 0 01-.018-.498l.023-7.933c.001-.36.042-.623.124-.788a.63.63 0 01.368-.333c.163-.057.373-.085.63-.084.258 0 .462.028.611.08.15.053.256.112.315.178.034.03.133.153.295.371 1.802 2.726 3.006 4.526 3.613 5.4l.014-4.806c.001-.36.042-.623.125-.789M67.86 8.988a.631.631 0 01.367-.333c.163-.056.367-.084.611-.083.245 0 .442.025.592.073.15.048.261.105.334.171a.595.595 0 01.16.3c.051.151.076.393.075.724l-.023 7.891c0 .228-.008.393-.02.497a1.226 1.226 0 01-.124.37c-.12.256-.456.383-1.004.38-.335 0-.567-.03-.695-.087a.764.764 0 01-.321-.27 661.35 661.35 0 00-3.792-5.585l-.014 4.677c0 .228-.008.394-.02.498a1.228 1.228 0 01-.124.37c-.121.255-.456.382-1.005.38-.532-.002-.857-.13-.977-.387a1.21 1.21 0 01-.12-.384 4.796 4.796 0 01-.019-.498l.024-7.933c0-.36.042-.623.124-.788a.63.63 0 01.368-.333c.163-.057.373-.085.63-.084.258 0 .461.028.611.08.15.053.255.112.315.178.034.03.133.153.295.371 1.802 2.726 3.006 4.526 3.613 5.4l.014-4.806c0-.36.042-.623.124-.789M73.036 16.453l3.963.012c.197 0 .345.008.444.023.099.014.212.06.34.136.232.133.347.503.345 1.109-.002.662-.162 1.05-.48 1.163-.146.056-.369.084-.669.083l-5.095-.015c-.6-.002-.952-.183-1.054-.543-.05-.152-.076-.393-.075-.725l.023-7.896c.001-.483.084-.811.247-.986.164-.175.473-.261.927-.26l5.07.015c.197 0 .345.008.444.023.098.014.212.06.34.136.232.133.347.503.345 1.108-.002.663-.162 1.05-.48 1.164-.146.056-.369.084-.669.083l-3.95-.012-.004 1.434 2.547.008c.197 0 .346.008.444.023.099.014.212.06.34.136.232.133.347.503.345 1.108-.002.663-.166 1.05-.492 1.163-.146.057-.37.084-.67.084l-2.522-.008z"
    fill="#e05d43" />
  <path
    d="M5.056 12.645l-.912 1.918 1.826.006zM.84 15.821l3.127-6.558c.101-.215.255-.387.462-.517.206-.13.423-.196.652-.195.495.001.86.246 1.097.732l3.685 7.835c.154.318.231.557.231.716-.001.336-.268.64-.799.909-.312.158-.557.236-.736.236a.723.723 0 01-.439-.128.821.821 0 01-.246-.267c-.05-.093-.121-.234-.212-.421l-.71-1.516-3.803-.011-.72 1.512a6.225 6.225 0 01-.213.406.984.984 0 01-.248.258.695.695 0 01-.44.132c-.179 0-.423-.08-.734-.24-.53-.263-.795-.563-.794-.9 0-.159.079-.397.236-.714L.84 15.82M13.293 13.544l1.758.005c.265.001.531-.102.797-.307.266-.206.4-.516.401-.929.002-.413-.13-.726-.395-.938-.265-.212-.54-.318-.823-.319l-1.73-.005zm5.263 3.608c.136.338.204.582.204.733-.001.357-.286.656-.855.899-.293.13-.529.195-.707.195a.692.692 0 01-.44-.135.991.991 0 01-.253-.276c-.09-.178-.445-1.03-1.063-2.553l-.426.028-1.73-.005-.005 1.706c0 .216-.008.378-.022.486a1.14 1.14 0 01-.132.373c-.129.253-.486.379-1.072.377-.641-.002-1.016-.177-1.125-.524-.054-.16-.08-.404-.08-.733l.023-7.933c0-.216.008-.378.022-.486a1.14 1.14 0 01.132-.373c.129-.253.486-.379 1.072-.377l2.967.009c.805.002 1.587.305 2.345.908.365.292.667.688.903 1.186.237.499.354 1.053.352 1.663-.003 1.062-.349 1.934-1.037 2.617.2.499.509 1.237.927 2.215M20.393 8.551l6.155.022c.292.001.508.037.645.109a.534.534 0 01.274.334c.045.152.067.35.067.596-.001.246-.025.443-.07.589a.486.486 0 01-.236.305c-.164.084-.398.126-.7.125l-1.883-.007-.02 7.138c-.001.218-.008.379-.023.482a1.186 1.186 0 01-.124.362.586.586 0 01-.365.29 2.268 2.268 0 01-.687.083c-.284 0-.51-.03-.68-.087a.582.582 0 01-.356-.292 1.16 1.16 0 01-.122-.37 4.244 4.244 0 01-.02-.49l.021-7.123-1.896-.008c-.293 0-.508-.037-.645-.109a.535.535 0 01-.274-.334 2.096 2.096 0 01-.066-.596c0-.246.024-.442.07-.589a.485.485 0 01.234-.304c.165-.085.4-.127.701-.126M28.313 12.358c0-.212.008-.372.022-.477a1.13 1.13 0 01.131-.368c.13-.248.487-.372 1.073-.37.64.001 1.02.173 1.138.515.045.158.067.398.067.721l-.024 5.394c0 .222-.008.383-.022.485a1.114 1.114 0 01-.131.36c-.13.249-.487.372-1.073.37-.64 0-1.016-.178-1.124-.529-.055-.148-.081-.383-.08-.706z"
    fill="#fff" />
  <path
    d="M83.494 12.087L81.06 9.103c-.3-.365-.563-.548-.79-.549-.228 0-.509.16-.845.483-.335.322-.503.601-.504.838 0 .237.149.524.448.862l2.577 3.025 3.975 4.668c.299.365.562.548.79.549.227 0 .506-.158.837-.476.331-.317.497-.594.498-.831 0-.237-.144-.529-.435-.876zM50.321 9.892a5.609 5.609 0 00-.613-.487l-4.598 9.24c.241.093.489.17.746.222zM43.871 17.94c.192.15.39.286.595.403l4.622-9.29a4.772 4.772 0 00-.663-.267zM46.604 18.963c.11.006.22.016.334.016 1.422.004 2.621-.507 3.598-1.532.976-1.025 1.467-2.268 1.472-3.73.004-1.276-.382-2.372-1.158-3.289zM43.318 17.452l4.392-8.829a5.366 5.366 0 00-.822-.069 4.772 4.772 0 00-1.882.382 5.265 5.265 0 00-1.618 1.06c-.47.451-.845 1.01-1.128 1.677a5.5 5.5 0 00-.428 2.149c-.005 1.401.49 2.61 1.483 3.626l.003.004"
    fill="#e05d43" />
  <path
    d="M85.635 3.145c-.125-.05-1.573-.718-3.08-.602-1.526.117-2.667.602-2.667.602l-.196.256.32.286.087.73.64-.203.174-1.069s2.042-.402 3.084-.233c1.042.169 1.958.75 1.958.75l1.265-.27-1.084-.045z"
    fill="#f9f9f9" />
  <path
    d="M85.822 3.774a.182.182 0 00-.11-.119c-.316-.12-1.341-.637-2.416-.618-.942.017-1.694.194-1.946.228a.186.186 0 00-.156.146l-.203.914a.188.188 0 01-.107.132l-.345.156a.19.19 0 00-.103.232c.102.304.31.993.331 1.63.016.452-.002.696-.022.826a.186.186 0 00.115.201l3.287 1.357a.189.189 0 00.258-.148l.114-.794a.189.189 0 01.144-.157l.616-.142a.49.49 0 00.377-.53l-.062-.586a.193.193 0 01.003-.054l.162-.678c.015-.084.07-.115.154-.122l.39-.035z"
    fill="#fff" />
  <path
    d="M86.136 2.423v.01A3.172 3.172 0 0081.333.509c.393-.13.8-.196 1.22-.198.924.004 1.785.3 2.568.965-.856-.484-1.712-.727-2.568-.73a4.86 4.86 0 00-1.68.325 3.194 3.194 0 00-.363.414c.316-.19.658-.326 1.023-.41.795-.17 1.59-.08 2.39.343-.828-.254-1.61-.3-2.345-.14-.445.1-.87.285-1.282.536a3.16 3.16 0 00-.407 1.391c.853-.365 1.892-.582 3.015-.582 1.263 0 2.279.337 3.183.789l1.198.083z"
    fill="#fff" /></svg>
