<svg xmlns="http://www.w3.org/2000/svg" width="107.203" height="107.203" viewBox="0 0 28.364 28.364">
  <!-- <path
    d="M28.188 14.182c0 7.735-6.27 14.006-14.006 14.006-7.735 0-14.006-6.271-14.006-14.006S6.447.176 14.182.176s14.006 6.27 14.006 14.006"
    fill="#fff" /> -->
  <path
    d="M28.188 14.182c0 7.735-6.27 14.006-14.006 14.006-7.735 0-14.006-6.271-14.006-14.006S6.447.176 14.182.176s14.006 6.27 14.006 14.006z"
    fill="none" stroke="#fff" stroke-miterlimit="10" stroke-width=".35278" />
  <path
    d="M13.42 20.967l-3.296 4.1c-.417.5-.772.75-1.066.75-.294 0-.668-.225-1.122-.672-.454-.448-.68-.829-.68-1.143.002-.314.204-.715.61-1.204l3.487-4.156"
    fill="teal" />
  <path
    d="M11.135 18.902L21.539 5.879c.417-.5.772-.751 1.066-.75.294 0 .665.222 1.113.663.448.44.672.83.67 1.17 0 .34-.198.735-.59 1.186L13.19 21.253"
    fill="teal" />
  <path
    d="M13.43 16.556l-3.273-4.01c-.403-.49-.756-.736-1.062-.737-.305 0-.683.216-1.134.649-.45.433-.677.808-.678 1.126 0 .319.2.704.602 1.158l3.463 4.065 5.34 6.273c.402.49.756.736 1.061.737.305 0 .68-.212 1.126-.64.445-.426.668-.798.669-1.117.001-.318-.194-.71-.584-1.176z"
    fill="#e05d43" />
  <path
    d="M15.705 5.968c-.156-.063-1.964-.896-3.845-.752-1.903.147-3.328.752-3.328.752l-.245.318.399.358.109.912.798-.254.218-1.334s2.549-.502 3.85-.292c1.3.211 2.443.937 2.443.937l1.578-.337-1.353-.056z"
    fill="#fff" />
  <path
    d="M15.938 6.752a.23.23 0 00-.138-.148c-.394-.15-1.673-.795-3.015-.77-1.175.02-2.114.242-2.428.284a.232.232 0 00-.196.182L9.91 7.44a.234.234 0 01-.133.164l-.432.195a.236.236 0 00-.128.29c.128.38.386 1.24.413 2.034.02.564-.002.869-.027 1.03a.232.232 0 00.143.252l4.102 1.693a.235.235 0 00.322-.184l.142-.991a.235.235 0 01.18-.196l.769-.178a.612.612 0 00.47-.66l-.076-.732a.246.246 0 01.002-.067l.203-.846c.02-.105.086-.144.193-.153l.487-.044z"
    fill="#fff" />
  <path
    d="M16.33 5.067v.012a3.959 3.959 0 00-5.996-2.401 4.89 4.89 0 011.523-.247c1.153.005 2.228.373 3.204 1.204-1.068-.604-2.136-.907-3.204-.91-.698.001-1.398.145-2.096.405a3.926 3.926 0 00-.454.516c.394-.237.82-.407 1.277-.51.992-.215 1.985-.102 2.982.426-1.033-.316-2.008-.374-2.926-.174a5.288 5.288 0 00-1.6.67 3.946 3.946 0 00-.508 1.735c1.065-.456 2.36-.726 3.763-.726 1.575 0 2.844.42 3.972.984l1.495.104z"
    fill="#fff" /></svg>
