<svg xmlns="http://www.w3.org/2000/svg" width="221.774" height="98.327" viewBox="0 0 58.678 26.016">
  <path
    d="M38.776.445c.001-.077.011-.134.03-.173.02-.038.08-.083.18-.133.177-.09.667-.135 1.47-.135.877.001 1.397.063 1.558.188.062.056.093.144.091.26l-.031 1.957a.41.41 0 01-.03.176c-.02.037-.08.08-.18.13-.177.091-.667.136-1.47.135-.877 0-1.39-.064-1.54-.192-.074-.053-.11-.139-.11-.256z"
    fill="#fff" />
  <path
    d="M50.515 22.406l-2.454 3.05c-.31.374-.574.56-.793.56-.218-.001-.497-.168-.834-.5-.338-.334-.507-.617-.506-.85 0-.234.151-.534.453-.897l2.595-3.093"
    fill="teal" />
  <path
    d="M48.814 20.87l7.743-9.693c.31-.373.575-.56.793-.558.219 0 .495.165.829.493.333.328.5.618.499.871 0 .253-.148.547-.44.883l-7.894 9.753"
    fill="teal" />
  <path
    d="M6.079 23.211l.232-.18c.292-.184.498-.276.618-.276.266 0 .553.261.86.781.188.325.282.585.28.779a.703.703 0 01-.175.486c-.116.13-.251.245-.406.346-.154.102-.303.199-.444.29-.142.093-.432.213-.87.36s-.86.22-1.268.218a4.583 4.583 0 01-1.235-.177 5.01 5.01 0 01-1.285-.587A5.376 5.376 0 011.2 24.247c-.35-.396-.639-.901-.864-1.518A5.755 5.755 0 010 20.719c.002-.722.115-1.377.34-1.966.225-.587.512-1.073.86-1.457a4.962 4.962 0 011.193-.962c.842-.498 1.688-.746 2.537-.743.403 0 .813.07 1.228.205.416.136.731.273.945.413l.308.195c.154.103.274.186.36.251.222.196.333.416.332.662 0 .245-.091.502-.272.77-.336.5-.637.749-.903.748-.154 0-.373-.103-.655-.307-.36-.316-.84-.476-1.44-.477-.558-.002-1.107.205-1.649.62-.258.204-.473.49-.646.86-.173.37-.26.79-.26 1.258-.002.467.082.887.253 1.258.17.371.388.664.654.878.521.41 1.066.615 1.632.616a2.5 2.5 0 00.753-.109c.236-.073.406-.147.509-.22M25.909 16.025a.631.631 0 01.367-.333c.163-.057.368-.084.612-.083.244 0 .442.025.592.072.15.048.26.105.334.172a.597.597 0 01.16.299c.05.152.076.394.075.725l-.023 7.891c0 .227-.008.393-.02.498a1.229 1.229 0 01-.124.369c-.121.255-.456.382-1.005.38-.335 0-.566-.03-.694-.087a.768.768 0 01-.321-.27 661.35 661.35 0 00-3.793-5.585l-.013 4.677c0 .227-.008.393-.021.498a1.228 1.228 0 01-.123.369c-.121.256-.456.382-1.005.38-.532 0-.857-.13-.977-.386a1.21 1.21 0 01-.121-.384 4.8 4.8 0 01-.018-.498l.023-7.933c.001-.36.043-.623.125-.789a.63.63 0 01.367-.333c.163-.056.374-.084.631-.083.257 0 .46.027.611.08.15.053.255.112.315.178.034.029.132.153.294.371 1.802 2.726 3.007 4.525 3.613 5.399l.014-4.805c.001-.36.043-.623.125-.79M34.887 16.025a.631.631 0 01.367-.333c.163-.057.367-.084.612-.083.244 0 .441.025.592.072.15.048.26.105.333.172a.597.597 0 01.16.299c.052.152.076.394.076.725l-.023 7.891c-.001.227-.008.393-.021.498a1.229 1.229 0 01-.123.369c-.121.255-.456.382-1.005.38-.335 0-.566-.03-.695-.087a.768.768 0 01-.32-.27 661.35 661.35 0 00-3.793-5.585l-.013 4.677c-.001.227-.008.393-.021.498a1.228 1.228 0 01-.124.369c-.12.256-.456.382-1.004.38-.532 0-.858-.13-.977-.386a1.21 1.21 0 01-.121-.384 4.8 4.8 0 01-.018-.498l.023-7.933c.001-.36.042-.623.125-.789a.63.63 0 01.367-.333c.163-.056.373-.084.63-.083.258 0 .462.027.612.08.15.053.255.112.314.178.034.029.133.153.295.371 1.802 2.726 3.007 4.525 3.613 5.399l.014-4.805c.001-.36.042-.623.125-.79M40.064 23.49l3.963.012c.197 0 .345.008.443.023.099.014.212.06.341.135.231.134.346.503.344 1.11-.002.662-.161 1.05-.48 1.162-.145.057-.368.084-.668.083L38.91 26c-.6-.002-.951-.182-1.053-.542-.051-.152-.077-.393-.076-.725l.023-7.896c.002-.483.084-.812.248-.986.163-.175.472-.262.927-.26l5.07.015c.197 0 .345.008.443.022.099.015.212.06.34.136.232.134.347.503.345 1.11-.002.662-.161 1.05-.48 1.162-.145.057-.368.084-.669.084l-3.95-.012-.004 1.434 2.548.008c.197 0 .345.008.444.022.098.015.212.06.34.136.231.133.346.503.344 1.109-.002.663-.166 1.05-.492 1.163-.146.056-.369.084-.67.083l-2.521-.007z"
    fill="#e05d43" />
  <path
    d="M6.924 5.607l-1.25 2.628 2.502.007zM1.15 9.957L5.433.976c.139-.294.35-.53.632-.709C6.348.088 6.645 0 6.96 0c.677.002 1.178.337 1.502 1.003l5.047 10.73c.211.436.317.763.317.98-.002.461-.367.876-1.095 1.245-.427.217-.763.325-1.007.324-.245 0-.446-.06-.602-.174a1.136 1.136 0 01-.337-.366c-.069-.128-.166-.32-.29-.577l-.972-2.077-5.21-.015-.984 2.07a8.403 8.403 0 01-.294.557 1.34 1.34 0 01-.339.354c-.157.121-.358.182-.602.18-.245 0-.58-.11-1.006-.329C.361 13.545 0 13.135 0 12.673c0-.217.108-.543.323-.978l.828-1.737M18.206 6.839l2.407.007c.363 0 .727-.14 1.092-.421.365-.282.548-.706.55-1.272.001-.566-.18-.994-.542-1.285-.363-.29-.739-.436-1.128-.437l-2.37-.007zm7.208 4.94c.186.464.28.799.279 1.004-.002.49-.392.9-1.17 1.232-.402.178-.725.268-.97.267-.244 0-.445-.063-.6-.185a1.364 1.364 0 01-.348-.377c-.124-.245-.61-1.41-1.456-3.496l-.584.036-2.37-.006-.006 2.337c0 .296-.01.517-.03.665-.02.148-.08.318-.18.51-.177.348-.667.52-1.47.518-.877-.003-1.39-.243-1.539-.719-.075-.219-.112-.553-.11-1.003l.032-10.865c0-.296.01-.518.03-.665.019-.148.079-.318.18-.511.177-.347.666-.519 1.469-.517l4.062.012c1.104.003 2.174.418 3.213 1.244.5.4.912.942 1.237 1.625.324.682.484 1.442.482 2.278-.004 1.453-.478 2.648-1.421 3.584.273.682.697 1.693 1.27 3.032M27.93 0l8.429.03c.401.002.696.052.883.15a.73.73 0 01.375.457c.062.208.093.48.092.817 0 .337-.033.606-.096.806-.064.201-.17.34-.321.417-.226.116-.546.174-.96.172l-2.578-.01-.03 9.776c0 .298-.01.519-.03.66-.019.144-.075.309-.17.496-.094.188-.261.32-.5.397-.238.077-.552.115-.94.114-.389-.001-.7-.04-.93-.12-.233-.078-.395-.211-.49-.4a1.61 1.61 0 01-.167-.505 5.801 5.801 0 01-.026-.67l.029-9.758-2.597-.01c-.402-.002-.696-.051-.884-.149a.73.73 0 01-.375-.458c-.062-.207-.093-.48-.091-.816 0-.337.032-.606.096-.807.063-.2.17-.34.32-.417.227-.116.547-.173.96-.172M38.776 5.214c.001-.29.011-.509.03-.654.02-.145.08-.313.18-.503.177-.34.667-.51 1.47-.508.877.003 1.397.239 1.558.707.062.216.093.544.091.987l-.031 7.388c-.001.303-.011.525-.03.664-.02.139-.08.303-.18.492-.177.341-.667.511-1.47.509-.877-.003-1.39-.244-1.54-.726-.074-.202-.11-.525-.11-.968z"
    fill="#fff" />
  <path
    d="M50.522 19.123l-2.436-2.984c-.3-.365-.563-.548-.79-.548-.227-.001-.509.16-.844.482-.335.322-.504.602-.504.838-.001.238.148.525.447.862l2.577 3.026 3.975 4.668c.3.365.562.548.79.549.227 0 .506-.158.838-.476.33-.317.497-.595.497-.831.001-.237-.144-.53-.434-.876zM17.348 16.929a5.609 5.609 0 00-.613-.488l-4.597 9.242c.24.092.488.168.746.22zM10.898 24.976c.192.15.39.287.595.404l4.622-9.29a4.86 4.86 0 00-.663-.267zM13.631 26c.111.006.22.015.334.015 1.423.004 2.622-.506 3.598-1.532.977-1.024 1.467-2.268 1.472-3.728.004-1.277-.382-2.374-1.158-3.29zM10.346 24.488l4.392-8.828a5.37 5.37 0 00-.823-.07 4.77 4.77 0 00-1.882.383c-.61.256-1.148.61-1.617 1.06-.47.45-.846 1.01-1.128 1.677a5.487 5.487 0 00-.428 2.149c-.005 1.401.49 2.61 1.482 3.626l.004.003"
    fill="#e05d43" />
  <path
    d="M53.975 5.067c-.2-.081-2.536-1.156-4.963-.97-2.457.19-4.296.97-4.296.97l-.316.412.515.462.14 1.176 1.03-.327.281-1.723s3.29-.648 4.97-.376C53.015 4.963 54.49 5.9 54.49 5.9l2.037-.435-1.746-.073z"
    fill="#fff" />
  <path
    d="M54.276 6.08a.295.295 0 00-.177-.191c-.51-.193-2.16-1.027-3.893-.996-1.516.028-2.73.313-3.135.368a.299.299 0 00-.252.235l-.326 1.473a.304.304 0 01-.172.211l-.557.252a.305.305 0 00-.165.374c.165.49.498 1.6.533 2.626.025.727-.003 1.121-.035 1.33a.3.3 0 00.184.325l5.296 2.186a.304.304 0 00.416-.238l.183-1.28a.304.304 0 01.233-.253l.992-.23a.79.79 0 00.608-.852l-.1-.945a.317.317 0 01.003-.086l.263-1.093c.024-.135.11-.186.248-.197l.629-.056z"
    fill="#fff" />
  <path
    d="M54.782 3.904l.001.015a5.11 5.11 0 00-7.74-3.1 6.31 6.31 0 011.965-.318c1.489.007 2.876.482 4.136 1.555-1.38-.78-2.758-1.172-4.136-1.176-.902.003-1.804.189-2.706.524-.215.204-.41.427-.587.666a5.556 5.556 0 011.65-.659c1.28-.277 2.562-.132 3.85.551-1.334-.409-2.593-.483-3.778-.225-.717.16-1.403.458-2.065.863a5.087 5.087 0 00-.656 2.242c1.374-.59 3.047-.938 4.857-.938 2.034 0 3.671.543 5.128 1.27l1.93.134z"
    fill="#fff" /></svg>
